# Blender 4.1.1
# www.blender.org
mtllib diamond.mtl
o Cube
v 0.113453 0.113367 -0.555676
v 1.000000 -1.000000 -1.000000
v 0.040305 0.040276 0.482972
v 0.235857 -0.431866 -0.059369
v -0.629071 0.039374 -0.186761
v 0.010094 -0.433099 -0.284403
v -1.000000 1.000000 1.000000
v -0.334012 -0.334012 0.334169
vn 0.3001 0.9051 -0.3011
vn 0.1569 -0.4963 0.8538
vn -0.8042 -0.5937 0.0300
vn -0.2324 -0.9430 0.2383
vn 0.8652 0.4296 0.2586
vn -0.5653 -0.2785 -0.7764
vt 0.625000 0.500000
vt 0.875000 0.500000
vt 0.875000 0.750000
vt 0.625000 0.750000
vt 0.375000 0.750000
vt 0.625000 1.000000
vt 0.375000 1.000000
vt 0.375000 0.000000
vt 0.625000 0.000000
vt 0.625000 0.250000
vt 0.375000 0.250000
vt 0.125000 0.500000
vt 0.375000 0.500000
vt 0.125000 0.750000
s 0
usemtl Material
f 1/1/1 5/2/1 7/3/1 3/4/1
f 4/5/2 3/4/2 7/6/2 8/7/2
f 8/8/3 7/9/3 5/10/3 6/11/3
f 6/12/4 2/13/4 4/5/4 8/14/4
f 2/13/5 1/1/5 3/4/5 4/5/5
f 6/11/6 5/10/6 1/1/6 2/13/6
