# Blender 4.1.1
# www.blender.org
mtllib diamond1.mtl
o Cube
v 1.000000 1.000000 -1.000000
v 1.000000 -1.000000 -1.000000
v 0.822297 0.393733 0.483852
v 1.000000 -1.000000 1.000000
v -1.032816 1.798284 -1.032816
v -2.842059 -2.842059 -2.842059
v -1.000000 1.000000 1.000000
v -0.994036 -0.994036 0.854923
v 4.564641 4.564641 4.564641
vn 0.3589 0.8616 0.3589
vn 0.1143 0.1143 0.9869
vn -0.9445 0.1748 0.2780
vn 0.2173 -0.9470 0.2367
vn 0.9962 0.0615 0.0615
vn 0.2690 0.1843 -0.9454
vt 0.625000 0.500000
vt 0.875000 0.500000
vt 0.875000 0.750000
vt 0.625000 0.750000
vt 0.375000 0.750000
vt 0.625000 1.000000
vt 0.375000 1.000000
vt 0.375000 0.000000
vt 0.625000 0.000000
vt 0.625000 0.250000
vt 0.375000 0.250000
vt 0.125000 0.500000
vt 0.375000 0.500000
vt 0.125000 0.750000
s 0
usemtl Material
f 1/1/1 5/2/1 7/3/1 3/4/1
f 4/5/2 3/4/2 7/6/2 8/7/2
f 8/8/3 7/9/3 5/10/3 6/11/3
f 6/12/4 2/13/4 4/5/4 8/14/4
f 2/13/5 1/1/5 3/4/5 4/5/5
f 6/11/6 5/10/6 1/1/6 2/13/6
l 6 9
